<svg width="173" height="70" viewBox="0 0 173 70" fill="none" xmlns="http://www.w3.org/2000/svg">
<rect width="172.324" height="70" fill="#FFDA00"/>
<path d="M60.4273 30.571H53.6964C52.2574 30.5708 50.8424 30.9385 49.5867 31.6389C48.331 32.3393 47.2765 33.349 46.524 34.5714C43.3453 33.358 39.823 33.3924 36.6688 34.6677C35.9272 33.4138 34.8707 32.374 33.6034 31.6509C32.336 30.9277 30.9015 30.546 29.4412 30.5435H22.6618C21.5362 30.5114 20.4155 30.7046 19.3661 31.1117C18.3167 31.5189 17.3598 32.1317 16.5522 32.9139C15.7446 33.6961 15.1028 34.6318 14.6644 35.6656C14.226 36.6994 14 37.8104 14 38.9327C14 40.0551 14.226 41.1661 14.6644 42.1999C15.1028 43.2337 15.7446 44.1694 16.5522 44.9516C17.3598 45.7338 18.3167 46.3466 19.3661 46.7538C20.4155 47.1609 21.5362 47.3541 22.6618 47.322H29.4065C30.7195 47.323 32.0147 47.0176 33.1882 46.4304C34.3616 45.8432 35.3808 44.9904 36.1643 43.9403C36.9479 42.8901 37.4741 41.6718 37.7006 40.3827C37.9271 39.0937 37.8477 37.7697 37.4689 36.5167C40.0824 35.4819 42.9866 35.4428 45.6272 36.4067C45.3717 37.2257 45.2418 38.0785 45.2413 38.9362C45.2404 40.0418 45.4586 41.1367 45.8835 42.158C46.3084 43.1793 46.9317 44.1069 47.7174 44.8874C48.5031 45.6679 49.4355 46.286 50.4616 46.7062C51.4877 47.1263 52.5871 47.3403 53.6964 47.3358H60.4343C61.56 47.3679 62.6807 47.1747 63.7301 46.7675C64.7795 46.3604 65.7363 45.7476 66.5439 44.9654C67.3515 44.1832 67.9933 43.2475 68.4317 42.2136C68.8701 41.1798 69.0961 40.0689 69.0961 38.9465C69.0961 37.8241 68.8701 36.7132 68.4317 35.6793C67.9933 34.6455 67.3515 33.7098 66.5439 32.9276C65.7363 32.1455 64.7795 31.5327 63.7301 31.1255C62.6807 30.7183 61.56 30.5251 60.4343 30.5572L60.4273 30.571ZM29.4341 45.3081H22.6618C21.0089 45.2538 19.4418 44.5613 18.2918 43.3768C17.1418 42.1923 16.499 40.6085 16.499 38.9602C16.499 37.312 17.1418 35.7282 18.2918 34.5437C19.4418 33.3592 21.0089 32.6667 22.6618 32.6124H29.4065C31.0594 32.6667 32.6264 33.3592 33.7765 34.5437C34.9265 35.7282 35.5696 37.312 35.5696 38.9602C35.5696 40.6085 34.9265 42.1923 33.7765 43.3768C32.6264 44.5613 31.0594 45.2538 29.4065 45.3081H29.4341ZM60.4273 45.3081H53.6964C52.8423 45.3361 51.9913 45.1926 51.194 44.8862C50.3967 44.5798 49.6697 44.1167 49.0557 43.5245C48.4416 42.9323 47.9532 42.223 47.6198 41.4389C47.2863 40.6548 47.1143 39.8119 47.1143 38.9602C47.1143 38.1086 47.2863 37.2657 47.6198 36.4815C47.9532 35.6974 48.4416 34.9882 49.0557 34.396C49.6697 33.8038 50.3967 33.3407 51.194 33.0343C51.9913 32.7279 52.8423 32.5844 53.6964 32.6124H60.4343C61.2883 32.5844 62.1394 32.7279 62.9367 33.0343C63.734 33.3407 64.461 33.8038 65.075 34.396C65.6891 34.9882 66.1774 35.6974 66.5109 36.4815C66.8444 37.2657 67.0164 38.1086 67.0164 38.9602C67.0164 39.8119 66.8444 40.6548 66.5109 41.4389C66.1774 42.223 65.6891 42.9323 65.075 43.5245C64.461 44.1167 63.734 44.5798 62.9367 44.8862C62.1394 45.1926 61.2883 45.3361 60.4343 45.3081H60.4273Z" fill="white"/>
<path d="M41.641 49.0405C43.1621 49.0567 44.6583 48.6548 45.9652 47.8788C46.0602 47.8255 46.1432 47.7532 46.209 47.6664C46.2747 47.5797 46.3219 47.4803 46.3474 47.3746C46.3729 47.2688 46.3762 47.159 46.3571 47.0519C46.3381 46.9449 46.297 46.8429 46.2366 46.7523C46.1762 46.6618 46.0976 46.5846 46.0059 46.5257C45.9142 46.4668 45.8112 46.4273 45.7035 46.4098C45.5958 46.3923 45.486 46.3972 45.3802 46.424C45.2745 46.4509 45.1754 46.4992 45.0893 46.566C43.9948 47.1673 42.7638 47.4787 41.5141 47.4703C40.2643 47.4618 39.0375 47.1339 37.9513 46.5179C37.7748 46.4646 37.5853 46.4743 37.4152 46.5453C37.2451 46.6163 37.1049 46.7442 37.0192 46.907C36.9334 47.0697 36.9075 47.2572 36.9454 47.4371C36.9834 47.6169 37.083 47.778 37.2273 47.8926C38.5836 48.6257 40.0982 49.0196 41.641 49.0405V49.0405Z" fill="#3E3E3F"/>
<path d="M60.6549 50.9171C60.6549 51.6044 59.9652 51.4738 59.9652 51.4738H22.448C22.448 51.4738 21.7583 51.5769 21.7583 50.9171V48.855H18.3582V51.8106C18.3582 51.8106 18.7168 55 21.8065 55C24.7582 54.9244 41.1171 55 41.2068 55H41.3583C43.5514 55 57.655 54.9244 60.6067 55C63.6895 55 64.055 51.8106 64.055 51.8106V48.855H60.6549V50.9171Z" fill="#3E3E3F"/>
<path d="M30.6756 40.0361C30.6756 39.7397 30.5872 39.45 30.422 39.2036C30.2568 38.9571 30.0222 38.7651 29.7475 38.6517C29.4728 38.5382 29.1704 38.5086 28.8787 38.5664C28.5871 38.6242 28.3192 38.7669 28.1089 38.9765C27.8987 39.186 27.7554 39.453 27.6974 39.7437C27.6394 40.0344 27.6692 40.3357 27.7829 40.6095C27.8967 40.8833 28.0897 41.1173 28.3369 41.282C28.5841 41.4466 28.8747 41.5345 29.172 41.5345C29.5702 41.5327 29.9516 41.3742 30.2331 41.0936C30.5147 40.813 30.6738 40.4329 30.6756 40.0361V40.0361Z" fill="#3E3E3F"/>
<path d="M54.5789 40.0361C54.5789 39.7397 54.4909 39.45 54.3257 39.2036C54.1605 38.9571 53.9255 38.7651 53.6508 38.6517C53.3761 38.5382 53.074 38.5086 52.7823 38.5664C52.4907 38.6242 52.2228 38.7669 52.0125 38.9765C51.8023 39.186 51.659 39.453 51.601 39.7437C51.543 40.0344 51.5728 40.3357 51.6866 40.6095C51.8004 40.8833 51.9929 41.1173 52.2402 41.282C52.4874 41.4466 52.7783 41.5345 53.0757 41.5345C53.4738 41.5327 53.8552 41.3742 54.1367 41.0936C54.4183 40.813 54.5771 40.4329 54.5789 40.0361V40.0361Z" fill="#3E3E3F"/>
<path d="M60.655 22.8794C59.3309 22.8794 55.2895 22.9138 51.2413 22.8794C51.2134 22.8796 51.186 22.8729 51.1615 22.8597C51.1369 22.8465 51.1163 22.8274 51.1012 22.8041C51.086 22.7808 51.0769 22.7541 51.0749 22.7264C51.0729 22.6987 51.0781 22.671 51.0897 22.6457L54.4343 15.2359C54.449 15.2052 54.4539 15.1706 54.4481 15.137C54.4423 15.1033 54.4262 15.0723 54.402 15.0482C54.3778 15.0241 54.3468 15.008 54.3131 15.0023C54.2793 14.9965 54.2446 15.0013 54.2137 15.016L45.4206 19.1539C45.3862 19.1702 45.3472 19.1736 45.3105 19.1635C45.2738 19.1534 45.2417 19.1305 45.2206 19.0989L43.255 16.1639C43.2432 16.1457 43.2279 16.1302 43.2099 16.1182C43.1918 16.1062 43.1716 16.098 43.1503 16.0942C43.1289 16.0903 43.107 16.0908 43.0859 16.0957C43.0648 16.1006 43.0448 16.1098 43.0273 16.1226L41.7033 17.0025C36.8757 20.2262 34.8965 21.924 34.0689 22.8588C34.0543 22.8752 34.036 22.888 34.0157 22.8963C33.9954 22.9047 33.9736 22.9083 33.9517 22.9069C29.1862 22.9069 23.6066 22.9069 21.848 22.9069C18.8411 22.9069 18.3997 25.9313 18.3997 26.0894V28.8801C18.3988 28.9015 18.4023 28.9228 18.4098 28.9427C18.4174 28.9627 18.429 28.981 18.4438 28.9964C18.4587 29.0118 18.4763 29.0241 18.496 29.0324C18.5157 29.0408 18.5369 29.0451 18.5583 29.0451H21.6342C21.6781 29.0451 21.7203 29.0277 21.7514 28.9968C21.7824 28.9658 21.7998 28.9239 21.7998 28.8801V26.9899C21.7998 26.3025 22.4895 26.4331 22.4895 26.4331H34.5033C34.951 26.4328 35.3858 26.2827 35.7378 26.0069L42.069 21.0304C42.0866 21.0164 42.1067 21.0063 42.1286 21.0007C42.1504 20.9952 42.1734 20.9943 42.1956 20.9982C42.2178 21.0021 42.2386 21.0107 42.2572 21.0234C42.2758 21.036 42.2916 21.0525 42.3033 21.0717L43.9793 23.5737C44.0017 23.6058 44.0347 23.6289 44.0726 23.639C44.1105 23.6491 44.1507 23.6454 44.1861 23.6287L47.1104 22.2539C47.1406 22.2405 47.1738 22.2364 47.2064 22.2421C47.2389 22.2478 47.2692 22.2631 47.2929 22.2861C47.3167 22.309 47.3329 22.3385 47.3397 22.3707C47.3465 22.403 47.3435 22.4365 47.331 22.467L45.5792 26.3644C45.5671 26.3892 45.5618 26.4167 45.5637 26.4441C45.5656 26.4716 45.5746 26.4981 45.59 26.5211C45.6053 26.544 45.6262 26.5625 45.6509 26.5748C45.6757 26.5871 45.7035 26.5928 45.7311 26.5912L49.3999 26.4262H60.0068C60.0068 26.4262 60.6964 26.33 60.6964 26.983V28.8732C60.6964 28.917 60.7139 28.959 60.7449 28.9899C60.776 29.0208 60.8182 29.0382 60.8621 29.0382H63.938C63.9594 29.0382 63.9805 29.0339 64.0003 29.0256C64.02 29.0172 64.0376 29.0049 64.0525 28.9895C64.0673 28.9741 64.0789 28.9558 64.0865 28.9359C64.094 28.9159 64.0975 28.8946 64.0966 28.8732V26.0826C64.0759 25.9038 63.655 22.8794 60.655 22.8794Z" fill="#3E3E3F"/>
<path d="M90.3066 33.5689C90.7838 33.5689 91.3247 33.5689 91.9327 33.5689C92.5407 33.5689 93.1346 33.6254 93.7215 33.6749C94.3083 33.7244 94.8562 33.788 95.3759 33.8587C95.7864 33.9106 96.1937 33.9862 96.5955 34.085C96.7426 34.1379 96.9 34.1559 97.0552 34.1375C97.2104 34.1191 97.3593 34.0648 97.4899 33.9789C97.7416 33.8175 97.9397 33.585 98.059 33.3108C98.1741 33.0537 98.2098 32.7681 98.1616 32.4907C98.1451 32.3665 98.0924 32.25 98.01 32.1556C97.9276 32.0613 97.8193 31.9934 97.6985 31.9604C97.3626 31.9003 96.9455 31.8508 96.447 31.8084C95.9486 31.766 95.4289 31.7377 94.8845 31.7165C94.3401 31.6953 93.7957 31.6882 93.2584 31.6882C92.721 31.6882 92.2544 31.6882 91.8443 31.7165C92.2615 31.2534 92.6857 30.8009 93.124 30.3661C93.5624 29.9312 94.0078 29.5212 94.4674 29.1358C94.6208 29.0256 94.7408 28.8752 94.8144 28.7012C94.888 28.5273 94.9122 28.3364 94.8845 28.1495C94.8181 27.7726 94.6519 27.4204 94.4032 27.1294C94.1546 26.8384 93.8325 26.6194 93.4705 26.4951C93.316 26.4313 93.1461 26.4144 92.982 26.4465C92.818 26.4785 92.667 26.5582 92.5478 26.6754C91.9088 27.2991 91.3113 27.964 90.7591 28.6657C90.052 29.5282 89.3061 30.5452 88.5213 31.7165C87.4113 31.7801 86.3154 31.8579 85.2443 31.9604C84.1853 32.0595 83.1372 32.2524 82.1122 32.5366C81.9593 32.5592 81.8156 32.6237 81.6971 32.7229C81.5785 32.8221 81.4897 32.9521 81.4405 33.0987C81.3735 33.3612 81.3943 33.6384 81.4996 33.8879C81.6049 34.1375 81.789 34.3458 82.0238 34.4809C82.141 34.5503 82.2747 34.5869 82.4109 34.5869C82.5471 34.5869 82.6808 34.5503 82.798 34.4809C83.505 34.2463 84.2281 34.0632 84.9615 33.933C85.7463 33.7951 86.5063 33.6926 87.2416 33.6325C86.4674 34.8662 85.6791 36.1919 84.8873 37.6095C84.0954 39.027 83.3353 40.4906 82.6213 41.9965C81.9072 43.5025 81.2426 45.0332 80.6381 46.5922C80.0502 48.0833 79.5567 49.61 79.1604 51.1631C79.0904 51.3505 79.0773 51.5544 79.1225 51.7493C79.1678 51.9442 79.2695 52.1215 79.4149 52.2589C79.7028 52.499 80.0564 52.6468 80.4295 52.6832C80.8116 52.7242 81.1977 52.6607 81.5466 52.4993C81.7106 52.4482 81.8567 52.3517 81.9681 52.221C82.0795 52.0902 82.1515 51.9305 82.1758 51.7605C82.2135 51.4164 82.3125 50.8897 82.4728 50.1803C82.633 49.4709 82.8687 48.6461 83.1798 47.7057C83.4885 46.763 83.8609 45.7155 84.2969 44.563C84.7329 43.4106 85.2502 42.2216 85.8488 40.9961C86.4474 39.7588 87.1179 38.5086 87.8603 37.2454C88.603 35.973 89.4199 34.7454 90.3066 33.5689Z" fill="#3E3E3F"/>
<path d="M114.632 28.3758C114.808 28.2059 114.921 27.9813 114.954 27.7385C114.986 27.4958 114.935 27.2494 114.808 27.0395C114.561 26.621 114.168 26.3078 113.705 26.1593C113.528 26.0613 113.322 26.0261 113.122 26.0595C112.922 26.0929 112.739 26.1928 112.603 26.3431C112.306 26.7461 111.917 27.3046 111.439 28.0117C110.962 28.7187 110.379 29.5918 109.711 30.6241L107.565 33.8728C106.83 34.9876 106.045 36.1518 105.211 37.3655C104.376 38.5792 103.601 39.6928 102.885 40.7062C102.149 41.7196 101.434 42.6517 100.739 43.5025C99.4072 45.2017 98.4645 46.0713 97.9106 46.1114C96.9679 46.1114 97.7127 43.9055 100.145 39.4937C100.26 39.319 100.326 39.1168 100.336 38.908C100.347 38.6991 100.302 38.4913 100.205 38.3059C100.121 38.1507 100.006 38.0142 99.8674 37.9048C99.7288 37.7954 99.5694 37.7154 99.3989 37.6696C99.1996 37.6351 98.9951 37.6444 98.7998 37.6969C98.6044 37.7494 98.4228 37.8438 98.2677 37.9736C98.0456 38.1571 97.8409 38.3606 97.6561 38.5816C97.4475 38.8255 97.2036 39.0977 96.9243 39.4018C96.5284 39.8684 96.2173 40.2325 95.9416 40.4941C94.9046 38.9952 93.5731 38.6818 91.9469 39.5538C90.5189 40.4013 89.2719 41.5221 88.2775 42.852C87.224 44.2472 86.5677 45.5434 86.3084 46.7406C86.028 47.9732 86.3662 48.7733 87.323 49.141C88.1136 49.3316 88.9475 49.2047 89.6456 48.7874C90.5205 48.304 91.3236 47.7007 92.0318 46.9951C92.4312 46.6134 92.813 46.2316 93.1807 45.8569C93.5483 45.4821 93.9089 45.0933 94.2695 44.6867C94.5452 44.365 94.8209 44.0645 95.0896 43.7923L95.8497 43.0182C95.1426 44.6679 94.8045 45.9735 94.8351 46.9351C94.8952 47.9072 95.1886 48.5471 95.7295 48.8476C96.625 49.3189 97.6384 49.1068 98.7697 48.2112C99.9845 47.1699 101.066 45.9825 101.99 44.6761C102.506 43.9479 102.984 43.2597 103.422 42.6116C103.857 41.9647 104.256 41.3461 104.613 40.7592C104.771 40.5236 104.92 40.3009 105.059 40.0911C105.2 39.8896 105.317 39.7058 105.412 39.5432C104.3 41.7915 103.336 43.9526 102.52 46.0265C101.705 48.1005 101.011 50.106 100.438 52.0433C100.369 52.2257 100.35 52.423 100.381 52.6154C100.413 52.8078 100.495 52.9884 100.619 53.1392C100.861 53.3931 101.191 53.5449 101.541 53.5634C101.901 53.5807 102.261 53.5291 102.602 53.4114C102.74 53.3784 102.867 53.3107 102.971 53.2148C103.076 53.119 103.154 52.998 103.199 52.8634C103.327 51.9097 103.516 50.965 103.765 50.0353C104.04 48.9536 104.401 47.7234 104.825 46.3447C105.83 43.2751 107.077 40.2903 108.555 37.4186C110.215 34.1739 112.254 31.1383 114.632 28.3758V28.3758ZM94.6265 41.5864C94.3445 42.009 94.025 42.4053 93.672 42.7707C93.4317 43.0358 93.1807 43.2974 92.912 43.5626L92.0636 44.3827C91.7631 44.6655 91.4838 44.9165 91.2258 45.1392C90.9891 45.3459 90.7412 45.5394 90.4834 45.719C89.7457 46.2233 89.2885 46.446 89.1118 46.3871C88.9315 46.3659 88.9315 46.1538 89.1118 45.7473C89.2976 45.316 89.535 44.9089 89.8188 44.5347C89.9779 44.312 90.1228 44.1141 90.2501 43.9408C90.3773 43.7676 90.5046 43.6121 90.6248 43.4707C91.2608 42.6767 92.0387 42.0078 92.9191 41.4981C93.3442 41.2409 93.837 41.1178 94.3331 41.1446C94.6277 41.2176 94.7255 41.3649 94.6265 41.5864Z" fill="#3E3E3F"/>
<path d="M141.7 33.5689C142.171 33.5524 142.712 33.5524 143.323 33.5689C143.931 33.5901 144.524 33.6254 145.111 33.6749C145.698 33.7244 146.25 33.788 146.766 33.8587C147.177 33.9103 147.586 33.9859 147.989 34.085C148.136 34.1379 148.293 34.1559 148.449 34.1375C148.604 34.1191 148.753 34.0648 148.883 33.9789C149.135 33.8183 149.332 33.5854 149.449 33.3108C149.567 33.0546 149.604 32.7685 149.555 32.4907C149.538 32.3665 149.486 32.25 149.403 32.1556C149.321 32.0613 149.213 31.9934 149.092 31.9604C148.756 31.9003 148.335 31.8508 147.84 31.8084C147.345 31.766 146.822 31.7377 146.274 31.7165C145.726 31.6953 145.186 31.6882 144.652 31.6882C144.118 31.6882 143.648 31.6882 143.238 31.7165C143.655 31.2534 144.083 30.8009 144.521 30.3661C144.959 29.9312 145.405 29.5212 145.861 29.1358C146.015 29.0261 146.135 28.8759 146.209 28.7017C146.283 28.5276 146.306 28.3364 146.278 28.1495C146.219 27.7722 146.055 27.4192 145.804 27.1314C145.559 26.8386 145.239 26.6185 144.878 26.4951C144.723 26.4313 144.554 26.4144 144.39 26.4465C144.225 26.4785 144.074 26.5582 143.955 26.6754C143.315 27.2982 142.718 27.9631 142.167 28.6657C141.46 29.5282 140.714 30.5452 139.929 31.7165C138.815 31.7801 137.723 31.8579 136.652 31.9604C135.593 32.0595 134.545 32.2524 133.52 32.5366C133.367 32.5588 133.223 32.6232 133.104 32.7224C132.986 32.8217 132.897 32.9519 132.848 33.0987C132.779 33.3619 132.8 33.6408 132.908 33.8906C133.014 34.1387 133.198 34.3459 133.431 34.4809C133.549 34.5503 133.682 34.5869 133.818 34.5869C133.955 34.5869 134.088 34.5503 134.206 34.4809C134.911 34.2467 135.633 34.0636 136.365 33.933C137.15 33.7951 137.91 33.6926 138.649 33.6325C137.871 34.8674 137.085 36.1931 136.291 37.6095C135.497 39.0259 134.757 40.46 134.071 41.9117C132.657 43.0677 131.515 43.9338 130.688 44.5029C130.115 44.931 129.494 45.2927 128.839 45.5811C128.461 45.7119 128.274 45.6518 128.274 45.3973C128.303 45.0194 128.399 44.6497 128.556 44.305C128.743 43.8336 128.987 43.2868 129.288 42.6647C129.577 42.0666 129.836 41.4543 130.062 40.83C130.264 40.2919 130.395 39.7298 130.451 39.1579C130.486 38.95 130.465 38.7368 130.391 38.5395C130.317 38.3422 130.193 38.1678 130.031 38.0337C129.825 37.8669 129.581 37.7556 129.32 37.7104C129.06 37.6652 128.792 37.6877 128.542 37.7756C127.895 37.9953 127.295 38.3359 126.775 38.7796C126.103 39.3276 125.48 39.932 124.912 40.586C124.287 41.2931 123.686 42.0001 123.109 42.7071C122.531 43.4141 122.005 44.0928 121.529 44.7433C121.057 45.3796 120.67 45.871 120.366 46.2175C120.443 46.0124 120.595 45.7013 120.815 45.2736C121.034 44.8458 121.274 44.3933 121.543 43.909C121.811 43.4247 122.084 42.9581 122.363 42.5127C122.576 42.1533 122.826 41.8168 123.109 41.5087C123.196 41.4158 123.254 41.2992 123.276 41.1734C123.297 41.0476 123.281 40.9182 123.229 40.8017C123.129 40.5038 122.955 40.2361 122.724 40.024C122.486 39.8062 122.192 39.6593 121.875 39.5997C121.717 39.5701 121.553 39.5825 121.401 39.6359C121.249 39.6893 121.114 39.7816 121.009 39.9038C120.697 40.2706 120.423 40.6673 120.189 41.088C119.918 41.5594 119.646 42.0731 119.372 42.6293L118.952 42.9828C118.457 43.3964 117.912 43.8065 117.329 44.213C116.746 44.6196 116.141 45.0014 115.522 45.3655C114.951 45.7063 114.361 46.0154 113.755 46.2917C113.278 46.5176 112.778 46.6907 112.263 46.8078C112.101 46.8606 111.93 46.8784 111.76 46.8602C111.591 46.8419 111.427 46.7879 111.28 46.7018C111.21 46.659 111.149 46.6015 111.103 46.5332C111.056 46.4648 111.025 46.3873 111.012 46.3058C110.971 46.1226 110.956 45.9347 110.966 45.7473C110.975 45.5606 111.011 45.3761 111.072 45.1993C111.119 45.0579 111.178 44.9208 111.249 44.7893C111.724 44.8666 112.211 44.8191 112.663 44.6514C113.197 44.4767 113.704 44.228 114.169 43.9126C114.667 43.5684 115.127 43.1714 115.54 42.7283C115.949 42.2949 116.312 41.8211 116.625 41.3143C117.036 40.6831 117.255 39.9462 117.255 39.1932C117.253 38.9373 117.193 38.685 117.079 38.4558C116.965 38.2266 116.8 38.0266 116.597 37.8711C116.123 37.5731 115.551 37.4705 115.003 37.5847C114.216 37.7263 113.474 38.0535 112.839 38.5392C112.226 38.9999 111.653 39.5133 111.128 40.0735C110.562 40.6686 110.052 41.3147 109.605 42.0036C109.171 42.6688 108.792 43.3688 108.474 44.0964C108.186 44.7324 107.995 45.4081 107.908 46.1008C107.829 46.6727 107.906 47.2552 108.131 47.787C108.37 48.3034 108.795 48.71 109.322 48.9253C109.862 49.1729 110.463 49.2577 111.051 49.1693C111.733 49.0765 112.4 48.8922 113.034 48.6213C113.762 48.3177 114.465 47.9572 115.137 47.5431C115.844 47.1083 116.551 46.6452 117.209 46.1468C117.562 45.8746 117.916 45.5988 118.269 45.3231C118.096 45.827 117.952 46.3404 117.838 46.8609C117.715 47.3719 117.674 47.8994 117.718 48.4234C117.719 48.6014 117.768 48.7759 117.86 48.9283C117.952 49.0807 118.084 49.2055 118.241 49.2895C118.493 49.3865 118.766 49.4153 119.033 49.3731C119.3 49.3309 119.551 49.2192 119.761 49.0491C120.373 48.6292 120.916 48.1163 121.37 47.529C121.907 46.8384 122.449 46.1196 122.996 45.3726C123.544 44.6231 124.077 43.909 124.604 43.2515C125.087 42.6196 125.604 42.0142 126.153 41.438C126.567 40.9886 127.043 40.6005 127.567 40.2855L126.658 42.145C126.298 42.8765 125.989 43.6325 125.735 44.4075C125.501 45.0815 125.381 45.7902 125.382 46.5038C125.363 46.7784 125.425 47.0525 125.56 47.2924C125.695 47.5323 125.898 47.7275 126.142 47.8542C126.562 48.0597 127.041 48.1134 127.496 48.0062C128.058 47.8843 128.601 47.6844 129.108 47.4123C129.704 47.0996 130.277 46.7452 130.822 46.3518C131.397 45.9347 131.938 45.5199 132.445 45.1074L132.777 44.8317C132.542 45.4162 132.306 46.0053 132.07 46.5992C131.482 48.0904 130.989 49.6171 130.593 51.1701C130.521 51.3574 130.507 51.5617 130.553 51.7569C130.598 51.9521 130.701 52.1294 130.847 52.266C131.135 52.5067 131.488 52.6546 131.862 52.6902C132.244 52.7313 132.63 52.6678 132.979 52.5064C133.135 52.451 133.273 52.3538 133.378 52.2254C133.482 52.097 133.55 51.9423 133.573 51.7782C133.615 51.4247 133.714 50.9085 133.873 50.198C134.032 49.4874 134.266 48.6602 134.58 47.7234C134.895 46.7866 135.263 45.7225 135.697 44.5807C136.132 43.4389 136.652 42.2475 137.249 41.0138C137.847 39.78 138.515 38.5392 139.261 37.263C140.001 35.9849 140.815 34.7513 141.7 33.5689V33.5689ZM112.542 42.5445C112.921 42.0496 113.317 41.5759 113.734 41.1304C113.952 40.8901 114.188 40.6667 114.441 40.4623C114.602 40.3207 114.781 40.2017 114.975 40.1088C115.105 40.0558 115.18 40.0841 115.201 40.183C115.185 40.4003 115.113 40.6098 114.992 40.7911C114.619 41.593 114.068 42.2991 113.38 42.8556C112.939 43.2397 112.405 43.5017 111.832 43.6156C112.032 43.2358 112.27 42.8769 112.542 42.5445V42.5445Z" fill="#3E3E3F"/>
<path d="M158.276 41.9046C158.223 41.7238 158.112 41.565 157.961 41.4521C157.879 41.3991 157.783 41.371 157.686 41.371C157.588 41.371 157.492 41.3991 157.41 41.4521L156.703 41.8056C156.349 41.9788 155.946 42.1839 155.48 42.4278C155.013 42.6717 154.515 42.9263 153.988 43.1879C153.461 43.4495 152.966 43.7111 152.5 43.962C152.033 44.213 151.616 44.4393 151.248 44.6302C150.985 44.7602 150.731 44.9078 150.488 45.0721C150.191 44.3669 150.161 43.5778 150.403 42.852C150.649 42.0917 151.044 41.3885 151.566 40.784C152.106 40.1553 152.739 39.6129 153.443 39.1755C154.074 38.7669 154.77 38.4692 155.501 38.2953C155.661 38.2702 155.809 38.1974 155.926 38.0863C156.044 37.9752 156.125 37.8311 156.158 37.6731C156.238 37.3369 156.227 36.9856 156.127 36.655C156.033 36.3181 155.841 36.0167 155.575 35.7889C155.455 35.6772 155.306 35.6021 155.145 35.5727C154.984 35.5432 154.818 35.5606 154.667 35.6227C153.618 36.0488 152.635 36.6213 151.747 37.3231C150.836 38.0225 150.05 38.8697 149.421 39.8295C149.028 40.4259 148.719 41.0729 148.501 41.7526C148.356 41.7774 148.212 41.7986 148.063 41.8162C147.737 41.8586 147.408 41.8692 147.08 41.848C146.76 41.8289 146.444 41.7671 146.14 41.6642C146.205 40.652 146.032 39.6385 145.634 38.7054C145.366 38.0872 144.913 37.5673 144.337 37.2171C143.866 36.9506 143.315 36.8639 142.785 36.9731C142.283 37.0715 141.828 37.3339 141.491 37.719C141.14 38.1358 140.945 38.6621 140.94 39.2073C140.949 39.929 141.206 40.6257 141.668 41.1799C141.424 40.877 141.089 40.6593 140.714 40.5577C140.56 40.5078 140.397 40.4998 140.239 40.5347C140.082 40.5695 139.937 40.6458 139.819 40.7557C139.305 41.2726 138.859 41.8536 138.494 42.4844C138.062 43.2531 137.785 44.0984 137.677 44.9731C137.594 45.4638 137.626 45.967 137.769 46.4437C137.895 46.8577 138.096 47.2449 138.363 47.5855C138.616 47.9036 138.931 48.167 139.289 48.3597C139.615 48.541 139.977 48.6496 140.349 48.6779C141.122 48.7519 141.899 48.5812 142.57 48.19C143.207 47.8162 143.769 47.3271 144.227 46.7477C144.67 46.1945 145.04 45.5875 145.33 44.9413C145.568 44.4402 145.738 43.9101 145.836 43.3646C146.448 43.4963 147.074 43.5474 147.699 43.5166C147.851 43.5166 148.007 43.4954 148.162 43.4742C148.126 44.4209 148.32 45.3621 148.728 46.2174C148.113 46.6417 147.529 47.08 146.985 47.5219C146.44 47.9638 145.924 48.4163 145.479 48.8582C144.763 49.5381 144.189 50.3542 143.793 51.2585C143.524 51.8739 143.426 52.5506 143.51 53.2169C143.591 53.7441 143.875 54.2186 144.302 54.5391C144.76 54.8697 145.318 55.0309 145.882 54.9951C146.612 54.9431 147.321 54.7242 147.953 54.3552C148.828 53.8487 149.597 53.1791 150.219 52.3827C150.605 51.9298 150.912 51.4161 151.128 50.8625C151.314 50.3852 151.433 49.8843 151.482 49.3743C151.522 48.9145 151.506 48.4516 151.436 47.9956C151.373 47.5909 151.289 47.1897 151.185 46.7937C151.69 46.4335 152.216 46.1041 152.761 45.8074C153.398 45.4538 154.049 45.1003 154.716 44.7468C155.383 44.3933 156.004 44.0704 156.579 43.7782C157.155 43.4848 157.594 43.2444 157.891 43.0712C158.083 42.9569 158.223 42.7715 158.28 42.5551C158.34 42.3422 158.338 42.1168 158.276 41.9046V41.9046ZM143.294 43.9125C143.088 44.3347 142.843 44.7371 142.562 45.1145C142.297 45.4757 141.992 45.8065 141.654 46.1008C141.398 46.3502 141.068 46.5101 140.714 46.5568C140.648 46.5705 140.579 46.5708 140.513 46.5574C140.447 46.544 140.384 46.5173 140.329 46.479C140.273 46.4406 140.226 46.3914 140.19 46.3343C140.154 46.2772 140.13 46.2134 140.12 46.1467C140.069 45.7901 140.104 45.4265 140.222 45.0862C140.373 44.6127 140.578 44.1583 140.834 43.7323C141.09 43.2872 141.412 42.8832 141.788 42.5339C141.931 42.4286 142.035 42.2796 142.085 42.1097C142.103 41.9884 142.082 41.8646 142.025 41.7561C142.245 42.0122 142.508 42.2276 142.803 42.3925C143.083 42.5691 143.383 42.7115 143.697 42.8167C143.612 43.1981 143.476 43.5665 143.294 43.9125ZM143.966 40.9077C143.733 40.7911 143.529 40.6245 143.368 40.4199C143.219 40.2324 143.099 40.0224 143.015 39.7977C142.939 39.6154 142.903 39.4189 142.909 39.2215C142.904 39.1532 142.917 39.0849 142.946 39.023C142.975 38.9611 143.019 38.9077 143.075 38.868C143.137 38.8288 143.211 38.8121 143.285 38.8204C143.358 38.8288 143.426 38.8617 143.478 38.9139C143.621 39.0477 143.728 39.2155 143.789 39.4018C143.874 39.6368 143.928 39.8814 143.952 40.13C143.98 40.3824 143.985 40.6368 143.966 40.89V40.9077ZM149.166 49.0137C149.086 49.3695 148.956 49.7123 148.781 50.0318C148.57 50.4073 148.325 50.7623 148.049 51.0923C147.747 51.4616 147.407 51.7981 147.034 52.0963C146.341 52.6831 145.88 52.8599 145.649 52.6266C145.422 52.3933 145.613 51.8206 146.232 50.912C146.644 50.3258 147.13 49.7947 147.678 49.3319C148.261 48.8263 148.738 48.4304 149.152 48.1476C149.232 48.4241 149.237 48.717 149.166 48.996V49.0137Z" fill="#3E3E3F"/>
<path d="M86.1844 15.1334H83.0353C83.0017 15.133 82.9684 15.1392 82.9373 15.1518C82.9061 15.1643 82.8778 15.1829 82.8539 15.2065C82.83 15.2301 82.8111 15.2582 82.7981 15.2892C82.7852 15.3201 82.7785 15.3534 82.7785 15.3869V24.2623C82.7785 24.3304 82.8056 24.3957 82.8537 24.4439C82.9019 24.492 82.9672 24.5191 83.0353 24.5191H84.267C84.334 24.5166 84.3975 24.4887 84.4446 24.441C84.4917 24.3933 84.5189 24.3294 84.5205 24.2623V21.1132H86.1974C86.9904 21.1132 87.7509 20.7982 88.3116 20.2375C88.8723 19.6768 89.1873 18.9163 89.1873 18.1233C89.1873 17.3304 88.8723 16.5699 88.3116 16.0091C87.7509 15.4484 86.9904 15.1334 86.1974 15.1334H86.1844ZM86.0772 19.4785H84.5205V16.7811H86.0772C86.2533 16.7755 86.4288 16.8047 86.5936 16.867C86.7584 16.9294 86.9093 17.0236 87.0376 17.1444C87.1659 17.2651 87.2692 17.4101 87.3414 17.5708C87.4136 17.7315 87.4533 17.9049 87.4584 18.0811C87.4601 18.2637 87.4256 18.4449 87.357 18.6141C87.2884 18.7834 87.187 18.9374 87.0586 19.0673C86.9303 19.1972 86.7774 19.3004 86.609 19.371C86.4405 19.4416 86.2598 19.4781 86.0772 19.4785Z" fill="white"/>
<path d="M96.428 15.1334H90.9715C90.9379 15.133 90.9046 15.1392 90.8735 15.1518C90.8423 15.1643 90.814 15.1829 90.7901 15.2065C90.7662 15.2301 90.7473 15.2582 90.7343 15.2892C90.7214 15.3201 90.7147 15.3534 90.7147 15.3869V24.2623C90.7147 24.3304 90.7418 24.3957 90.7899 24.4439C90.8381 24.492 90.9034 24.5191 90.9715 24.5191H96.428C96.4616 24.5191 96.4948 24.5124 96.5258 24.4995C96.5567 24.4865 96.5848 24.4676 96.6084 24.4437C96.632 24.4198 96.6506 24.3915 96.6631 24.3603C96.6757 24.3292 96.6819 24.2959 96.6815 24.2623V23.1639C96.6815 23.0966 96.6548 23.0322 96.6072 22.9846C96.5597 22.9371 96.4952 22.9104 96.428 22.9104H92.4599V20.564H95.7585C95.7921 20.564 95.8253 20.5573 95.8563 20.5444C95.8873 20.5314 95.9153 20.5125 95.9389 20.4886C95.9625 20.4647 95.9811 20.4364 95.9937 20.4052C96.0062 20.3741 96.0124 20.3408 96.012 20.3072V19.1958C96.0096 19.1293 95.9821 19.0662 95.9351 19.0192C95.8881 18.9722 95.825 18.9447 95.7585 18.9423H92.4599V16.7421H96.428C96.4952 16.7421 96.5597 16.7154 96.6072 16.6679C96.6548 16.6204 96.6815 16.5559 96.6815 16.4886V15.3869C96.6815 15.3536 96.6749 15.3207 96.6622 15.2899C96.6495 15.2592 96.6308 15.2312 96.6072 15.2077C96.5837 15.1841 96.5558 15.1655 96.525 15.1527C96.4943 15.14 96.4613 15.1334 96.428 15.1334V15.1334Z" fill="white"/>
<path d="M107.569 19.8392C107.57 18.886 107.288 17.9538 106.76 17.1606C106.231 16.3673 105.48 15.7485 104.599 15.3825C103.719 15.0166 102.75 14.9198 101.815 15.1045C100.88 15.2892 100.021 15.7471 99.3457 16.4202C98.6707 17.0933 98.2105 17.9515 98.0233 18.8861C97.8361 19.8208 97.9302 20.79 98.2938 21.6711C98.6574 22.5523 99.2741 23.3058 100.066 23.8364C100.858 24.3671 101.789 24.651 102.743 24.6523C102.943 24.6505 103.144 24.6375 103.344 24.6133L104.78 27.0377C104.803 27.0749 104.835 27.1062 104.872 27.1293C104.909 27.1524 104.951 27.1667 104.995 27.171H106.415C106.462 27.1737 106.51 27.1627 106.551 27.1394C106.593 27.1161 106.627 27.0814 106.649 27.0394C106.672 26.9975 106.682 26.9499 106.679 26.9024C106.675 26.8549 106.658 26.8094 106.629 26.7712L104.952 24.1291C105.733 23.7137 106.387 23.0965 106.847 22.3419C107.307 21.5873 107.556 20.723 107.569 19.8392V19.8392ZM102.743 22.9104C101.924 22.9104 101.138 22.5851 100.559 22.0061C99.9804 21.4271 99.6551 20.6418 99.6551 19.823C99.6551 19.0042 99.9804 18.2189 100.559 17.6399C101.138 17.0609 101.924 16.7356 102.743 16.7356C103.561 16.7356 104.347 17.0609 104.926 17.6399C105.505 18.2189 105.83 19.0042 105.83 19.823C105.83 20.6418 105.505 21.4271 104.926 22.0061C104.347 22.5851 103.561 22.9104 102.743 22.9104V22.9104Z" fill="white"/>
<path d="M116.415 15.1334H115.141C115.074 15.1334 115.009 15.1601 114.962 15.2077C114.914 15.2552 114.887 15.3197 114.887 15.3869V20.8857C114.887 21.4029 114.682 21.8988 114.316 22.2645C113.951 22.6302 113.455 22.8357 112.937 22.8357C112.42 22.8357 111.924 22.6302 111.559 22.2645C111.193 21.8988 110.987 21.4029 110.987 20.8857V15.3869C110.987 15.3534 110.981 15.3201 110.968 15.2892C110.955 15.2582 110.936 15.2301 110.912 15.2065C110.888 15.1829 110.86 15.1643 110.829 15.1518C110.798 15.1392 110.764 15.133 110.731 15.1334H109.457C109.39 15.1359 109.327 15.1633 109.28 15.2104C109.233 15.2574 109.206 15.3205 109.203 15.3869V20.9637C109.203 21.9549 109.597 22.9055 110.298 23.6064C110.999 24.3073 111.949 24.7011 112.941 24.7011C113.932 24.7011 114.882 24.3073 115.583 23.6064C116.284 22.9055 116.678 21.9549 116.678 20.9637V15.3869C116.675 15.3188 116.647 15.2543 116.598 15.2071C116.548 15.1598 116.483 15.1334 116.415 15.1334V15.1334Z" fill="white"/>
<path d="M124.682 15.1334H119.232C119.199 15.133 119.166 15.1392 119.134 15.1518C119.103 15.1643 119.075 15.1829 119.051 15.2065C119.027 15.2301 119.008 15.2582 118.995 15.2892C118.982 15.3201 118.976 15.3534 118.976 15.3869V24.2623C118.976 24.3304 119.003 24.3957 119.051 24.4439C119.099 24.492 119.164 24.5191 119.232 24.5191H124.682C124.716 24.5191 124.749 24.5124 124.78 24.4995C124.811 24.4865 124.839 24.4676 124.863 24.4437C124.886 24.4198 124.905 24.3915 124.918 24.3603C124.93 24.3292 124.936 24.2959 124.936 24.2623V23.1639C124.936 23.0966 124.909 23.0322 124.862 22.9846C124.814 22.9371 124.75 22.9104 124.682 22.9104H120.721V20.564H124.033C124.066 20.564 124.099 20.5573 124.13 20.5444C124.161 20.5314 124.189 20.5125 124.213 20.4886C124.237 20.4647 124.255 20.4364 124.268 20.4052C124.28 20.3741 124.286 20.3408 124.286 20.3072V19.1958C124.284 19.1293 124.256 19.0662 124.209 19.0192C124.162 18.9722 124.099 18.9447 124.033 18.9423H120.721V16.7421H124.682C124.75 16.7421 124.814 16.7154 124.862 16.6679C124.909 16.6204 124.936 16.5559 124.936 16.4886V15.3869C124.936 15.3536 124.929 15.3207 124.917 15.2899C124.904 15.2592 124.885 15.2312 124.862 15.2077C124.838 15.1841 124.81 15.1655 124.779 15.1527C124.749 15.14 124.716 15.1334 124.682 15.1334Z" fill="white"/>
<path d="M134.53 15.1334H133.295C133.227 15.1334 133.163 15.1601 133.115 15.2076C133.068 15.2551 133.041 15.3196 133.041 15.3868V20.9116L127.451 15.0066H127.126C127.061 15.0057 126.998 15.0304 126.951 15.0753C126.903 15.1202 126.875 15.1819 126.873 15.2471V24.2688C126.874 24.3358 126.902 24.3997 126.949 24.4474C126.996 24.4951 127.059 24.523 127.126 24.5255H128.348C128.382 24.5255 128.415 24.5188 128.446 24.5059C128.477 24.493 128.505 24.474 128.529 24.4501C128.552 24.4262 128.571 24.3979 128.583 24.3668C128.596 24.3356 128.602 24.3023 128.602 24.2688V18.497L134.208 24.6522H134.533C134.598 24.6531 134.661 24.6285 134.708 24.5836C134.756 24.5386 134.784 24.477 134.786 24.4118V15.3868C134.784 15.3198 134.756 15.2563 134.708 15.2092C134.66 15.1621 134.597 15.135 134.53 15.1334V15.1334Z" fill="white"/>
<path d="M141.364 15.0066C140.41 15.0066 139.478 15.2894 138.684 15.8191C137.891 16.3488 137.272 17.1018 136.907 17.9829C136.541 18.864 136.445 19.8337 136.63 20.7695C136.815 21.7053 137.273 22.5652 137.947 23.2407C138.621 23.9161 139.479 24.3768 140.415 24.5645C141.35 24.7521 142.32 24.6584 143.202 24.2951C144.084 23.9319 144.839 23.3153 145.371 22.5234C145.902 21.7314 146.188 20.7997 146.19 19.8457C146.195 19.21 146.073 18.5797 145.833 17.9913C145.592 17.4029 145.237 16.8681 144.788 16.418C144.339 15.9679 143.805 15.6114 143.218 15.3691C142.63 15.1268 142 15.0036 141.364 15.0066ZM141.364 22.9169C140.545 22.9169 139.76 22.5916 139.181 22.0126C138.602 21.4336 138.277 20.6483 138.277 19.8295C138.277 19.0106 138.602 18.2254 139.181 17.6464C139.76 17.0674 140.545 16.7421 141.364 16.7421C142.183 16.7421 142.968 17.0674 143.547 17.6464C144.126 18.2254 144.452 19.0106 144.452 19.8295C144.452 20.6483 144.126 21.4336 143.547 22.0126C142.968 22.5916 142.183 22.9169 141.364 22.9169V22.9169Z" fill="white"/>
<path d="M150.698 18.9682C149.612 18.5262 149.115 18.0973 149.115 17.4668C149.115 17.0378 149.531 16.5276 150.295 16.5276C151.058 16.5276 152.05 17.197 152.157 17.2653C152.241 17.3058 152.338 17.3114 152.426 17.2809C152.514 17.2505 152.587 17.1865 152.628 17.1028L153.135 16.3391C153.181 16.2695 153.199 16.1848 153.185 16.1025C153.17 16.0202 153.125 15.9466 153.057 15.8971C152.276 15.3319 151.34 15.0189 150.376 15.0001C148.244 15.0001 147.36 16.3813 147.36 17.574C147.36 19.1567 148.618 19.9594 149.879 20.4697C151.007 20.9247 151.582 21.3926 151.582 22.0946C151.582 22.6698 151.059 23.1281 150.363 23.1281C149.489 23.1281 148.413 22.3351 148.338 22.2961C148.302 22.2714 148.262 22.2543 148.219 22.2456C148.176 22.237 148.132 22.2371 148.089 22.2459C148.046 22.2547 148.006 22.272 147.97 22.2968C147.934 22.3217 147.903 22.3534 147.88 22.3903L147.399 23.2191C147.279 23.4336 147.344 23.5018 147.467 23.6221C148.283 24.3294 149.336 24.7031 150.415 24.6685C152.306 24.6685 153.499 23.3946 153.499 22.0134C153.499 20.2682 151.998 19.4915 150.698 18.9682Z" fill="white"/>
</svg>
